<?xml version="1.0" standalone="no"?>
<!DOCTYPE svg PUBLIC "-//W3C//DTD SVG 20010904//EN"
 "http://www.w3.org/TR/2001/REC-SVG-20010904/DTD/svg10.dtd">
<svg version="1.0" xmlns="http://www.w3.org/2000/svg"
 width="700.000000pt" height="700.000000pt" viewBox="0 0 700.000000 700.000000"
 preserveAspectRatio="xMidYMid meet">
<metadata>
Created by potrace 1.14, written by Peter Selinger 2001-2017
</metadata>
<g transform="translate(0.000000,700.000000) scale(0.100000,-0.100000)"
fill="#000000" stroke="none">
<path d="M0 3500 l0 -3500 3500 0 3500 0 0 3500 0 3500 -3500 0 -3500 0 0
-3500z m6990 0 l0 -3490 -3490 0 -3490 0 0 3490 0 3490 3490 0 3490 0 0 -3490z"/>
<path d="M1819 6215 c-194 -31 -367 -88 -549 -181 -413 -213 -729 -580 -874
-1015 -122 -367 -127 -821 -11 -1187 l24 -77 723 3 c670 2 724 4 753 20 27 16
52 71 245 531 146 348 225 525 246 550 17 20 55 50 85 66 48 27 63 30 139 30
95 0 146 -19 208 -79 45 -41 35 -22 382 -796 166 -371 307 -684 312 -694 9
-17 53 65 277 512 294 587 304 603 411 643 113 43 258 8 332 -81 16 -19 101
-178 189 -353 148 -295 163 -320 194 -333 29 -12 162 -14 862 -12 l827 3 24
75 c106 338 107 777 2 1129 -162 544 -597 991 -1138 1171 -217 72 -296 84
-562 85 -207 0 -249 -3 -349 -23 -289 -59 -575 -193 -791 -372 -36 -30 -113
-101 -172 -159 l-108 -104 -123 120 c-310 299 -610 457 -997 522 -145 25 -421
28 -561 6z"/>
<path d="M2591 3859 c-10 -24 -47 -111 -81 -192 -66 -156 -112 -229 -198 -311
-85 -81 -172 -131 -294 -168 -71 -21 -88 -22 -665 -26 -326 -2 -593 -7 -593
-11 0 -13 174 -178 1318 -1246 601 -561 1118 -1037 1148 -1057 152 -103 384
-105 541 -6 47 30 2037 1877 2351 2183 l134 130 -708 5 c-794 6 -752 3 -914
82 -67 32 -102 59 -171 127 -52 53 -99 110 -120 148 -19 35 -36 63 -39 63 -3
0 -127 -245 -277 -544 -253 -506 -275 -546 -323 -589 -61 -55 -122 -77 -209
-77 -107 1 -204 59 -252 153 -11 21 -155 338 -320 705 -166 367 -303 669 -305
671 -2 2 -12 -16 -23 -40z"/>
</g>
</svg>
