<?xml version="1.0" standalone="no"?>
<!DOCTYPE svg PUBLIC "-//W3C//DTD SVG 20010904//EN"
 "http://www.w3.org/TR/2001/REC-SVG-20010904/DTD/svg10.dtd">
<svg version="1.0" xmlns="http://www.w3.org/2000/svg"
 width="700.000000pt" height="700.000000pt" viewBox="0 0 700.000000 700.000000"
 preserveAspectRatio="xMidYMid meet">
<metadata>
Created by potrace 1.11, written by Peter Selinger 2001-2013
</metadata>
<g transform="translate(0.000000,700.000000) scale(0.100000,-0.100000)"
fill="#000000" stroke="none">
<path d="M420 6981 c-158 -42 -287 -148 -357 -292 -23 -46 -46 -106 -52 -134
-14 -69 -14 -6028 0 -6105 12 -66 65 -178 111 -238 71 -92 216 -180 333 -201
42 -8 933 -10 3080 -9 l3020 3 60 23 c204 77 342 239 376 442 5 32 9 1294 9
3050 -1 3305 5 3035 -65 3177 -70 142 -230 263 -385 292 -37 7 -1058 10 -3060
10 -2835 0 -3009 -1 -3070 -18z"/>
</g>
</svg>
