<?xml version="1.0" standalone="no"?>
<!DOCTYPE svg PUBLIC "-//W3C//DTD SVG 20010904//EN"
 "http://www.w3.org/TR/2001/REC-SVG-20010904/DTD/svg10.dtd">
<svg version="1.0" xmlns="http://www.w3.org/2000/svg"
 width="904.000000pt" height="904.000000pt" viewBox="0 0 904.000000 904.000000"
 preserveAspectRatio="xMidYMid meet">
<metadata>
Created by potrace 1.14, written by Peter Selinger 2001-2017
</metadata>
<g transform="translate(0.000000,904.000000) scale(0.100000,-0.100000)"
fill="#000000" stroke="none">
<path d="M2050 8998 c-25 -23 -84 -78 -131 -122 -48 -45 -130 -121 -184 -171
-53 -49 -116 -108 -140 -130 -65 -61 -243 -226 -280 -260 -18 -16 -86 -80
-151 -141 -66 -61 -144 -134 -174 -162 -30 -27 -83 -76 -117 -109 -34 -32
-101 -94 -149 -138 -48 -44 -113 -105 -145 -135 -32 -30 -94 -88 -138 -129
l-81 -74 0 -2903 0 -2903 140 2 c77 1 140 -2 140 -6 0 -5 5 -5 11 -1 16 10
229 11 229 1 0 -5 5 -5 12 -1 16 10 468 11 468 1 0 -5 5 -5 11 -1 16 10 229
11 229 1 0 -5 5 -5 11 -1 16 10 229 11 229 1 0 -5 5 -5 12 -1 16 10 468 11
468 0 0 -5 6 -4 13 1 6 5 18 8 25 7 6 -1 27 -2 45 -3 l32 -1 0 -810 -1 -809
30 27 c39 37 72 67 143 132 106 98 252 233 325 302 40 38 76 68 81 68 4 0 5 5
2 10 -3 6 -2 10 3 10 5 0 32 21 60 47 27 27 96 91 152 143 57 52 120 111 140
130 20 19 86 80 145 135 60 55 123 114 141 130 17 17 83 78 145 136 63 59 128
120 145 135 17 16 75 70 128 119 71 67 106 92 131 96 19 3 35 2 35 -3 0 -5 5
-6 11 -2 16 10 229 11 229 1 0 -5 5 -5 11 -1 16 10 229 11 229 1 0 -5 5 -5 11
-1 7 4 195 7 420 6 394 -1 408 0 431 19 12 11 68 62 123 114 55 51 116 107
135 125 52 48 259 240 295 275 46 43 253 237 295 275 19 18 84 78 144 134 60
55 117 108 126 116 9 8 72 67 140 130 68 63 138 129 155 145 81 74 241 223
275 255 21 19 66 62 101 94 35 33 98 91 140 130 66 63 255 238 345 321 87 80
251 234 284 265 36 34 228 212 279 259 14 13 79 73 144 134 l117 110 0 2258 0
2259 -3293 0 -3292 0 -45 -42z m5907 -627 c8 -1 11 -428 11 -1760 l0 -1758
-106 -99 c-58 -55 -120 -112 -138 -129 -84 -79 -261 -243 -290 -270 -48 -44
-208 -193 -263 -245 -71 -66 -251 -234 -286 -265 -55 -51 -257 -240 -274 -257
-15 -15 -70 -17 -666 -17 -358 0 -670 0 -695 -1 -42 0 -51 -6 -116 -68 -40
-37 -113 -105 -164 -152 -51 -47 -120 -111 -154 -143 -33 -32 -95 -89 -136
-127 -41 -38 -96 -88 -121 -112 -39 -37 -88 -83 -304 -283 -18 -16 -76 -70
-130 -120 -53 -49 -101 -91 -106 -93 -5 -2 -9 214 -9 547 l0 551 -37 0 c-21 1
-371 2 -778 3 l-740 2 -1 2395 c0 1317 1 2397 2 2400 2 5 5465 6 5501 1z"/>
<path d="M4339 7217 c-1 -15 -1 -1895 0 -1922 1 -20 7 -20 343 -18 189 0 349
2 356 2 9 1 12 203 12 975 l0 975 -355 0 c-268 0 -355 -3 -356 -12z"/>
<path d="M6237 7208 c-2 -7 0 -21 5 -30 5 -10 5 -18 1 -18 -9 0 -8 -74 2 -89
3 -6 3 -11 -2 -11 -4 0 -8 -11 -8 -25 0 -14 2 -25 5 -25 3 0 4 -17 3 -37 -1
-21 -2 -38 -3 -38 -6 0 -4 -58 2 -61 5 -3 5 -10 1 -17 -9 -15 -10 -118 -1
-123 4 -3 3 -15 -2 -28 -4 -12 -4 -29 0 -36 5 -8 6 -19 3 -24 -9 -14 -10 -56
-2 -56 4 0 4 -13 -1 -30 -5 -17 -5 -30 0 -30 5 0 7 -6 5 -12 -9 -24 -11 -99
-4 -104 5 -3 4 -15 -1 -28 -4 -12 -4 -29 0 -36 5 -8 6 -19 3 -24 -9 -14 -10
-56 -2 -56 4 0 4 -13 -1 -30 -5 -16 -6 -30 -2 -30 4 0 6 -17 5 -37 -1 -21 -2
-38 -3 -38 -6 0 -4 -58 2 -61 5 -3 5 -10 1 -17 -9 -15 -10 -146 -1 -140 5 2 4
-7 -1 -20 -5 -13 -5 -30 -1 -37 5 -8 5 -21 0 -30 -5 -9 -4 -23 1 -33 6 -9 6
-17 2 -17 -4 0 -8 -11 -8 -25 0 -14 2 -25 5 -25 3 0 4 -17 3 -37 -1 -21 -2
-38 -3 -38 -6 0 -4 -58 2 -61 5 -3 5 -10 1 -17 -9 -15 -10 -118 -1 -123 4 -3
3 -15 -2 -28 -4 -12 -4 -29 0 -36 5 -8 6 -19 3 -24 -9 -14 -10 -56 -2 -56 4 0
5 -9 2 -20 -5 -20 0 -20 351 -20 l356 0 0 975 0 975 -354 0 c-274 0 -355 -3
-359 -12z"/>
</g>
</svg>
